# File created by Blade
# Date/Time:  Wed Jan 21 17:16:23 2015
# Frame Rate: 120.000 fps
#------------------------------------------------------
:FULLY-SPECIFIED
:DEGREES
799
root 19.911985 6.787340 -17.406333 -163.465981 -21.822575 -217.702326
Spine 47.151762 -9.134981 -37.100917
Head 24.803727 13.590960 -2.249251
LeftShoulder 10.934566 -29.466528 0.370692
LeftArm 29.474308 38.408819 -42.353685
LeftForeArm 15.619377 -0.000000 78.363664
LeftHand -15.152996 -0.000000 7.789360
LeftHandThumb1 -26.253704 0.000000 33.147579
RightShoulder -0.666407 -17.404897 6.802506
RightArm 18.336422 -13.619891 75.731478
RightForeArm -54.590373 0.000000 54.509439
RightHand -8.280412 -0.000000 -20.162790
RightHandThumb1 -24.326973 -0.000000 -32.862282
LeftUpLeg 0.179498 33.330253 27.882724
LeftLeg 134.571479 -0.000000 -0.000000
LeftFoot 46.419063 12.045427 22.482987
LeftToeBase 23.773378 -0.000000 -0.000000
RightUpLeg -124.070880 -8.009173 52.017243
RightLeg 136.455241 -0.000000 -0.000000
RightFoot 34.239709 -27.206311 16.897169
RightToeBase 36.088709 -0.000000 -0.000000
800
root 19.938507 6.755034 -17.373985 -163.701747 -22.000643 -217.739890
Spine 47.029962 -8.738192 -37.225613
Head 24.974826 13.261784 -2.148190
LeftShoulder 10.908065 -29.703911 0.342288
LeftArm 29.251627 38.753805 -42.357565
LeftForeArm 15.684544 -0.000000 77.846188
LeftHand -14.365061 0.000000 8.129198
LeftHandThumb1 -26.253704 0.000000 33.147579
RightShoulder -0.738228 -17.469038 6.845628
RightArm 18.311617 -13.803769 75.713775
RightForeArm -54.649899 -0.000000 54.407965
RightHand -8.458913 0.000000 -20.335928
RightHandThumb1 -24.326973 -0.000000 -32.862282
LeftUpLeg 0.187536 33.092696 28.052352
LeftLeg 134.762221 -0.000000 -0.000000
LeftFoot 46.541057 12.166964 22.419494
LeftToeBase 24.041439 -0.000000 -0.000000
RightUpLeg -124.004776 -8.138387 52.066540
RightLeg 136.309678 -0.000000 -0.000000
RightFoot 34.401043 -27.533604 16.739996
RightToeBase 36.515281 -0.000000 -0.000000
801
root 19.966563 6.726514 -17.342234 -163.933631 -22.220035 -217.763885
Spine 46.916457 -8.451388 -37.343533
Head 25.173669 13.040030 -2.140195
LeftShoulder 10.737474 -29.633469 0.287912
LeftArm 29.448492 38.944111 -41.963665
LeftForeArm 15.688734 -0.000000 77.315079
LeftHand -13.855251 -0.000000 8.176731
LeftHandThumb1 -26.253704 0.000000 33.147579
RightShoulder -0.715519 -17.588510 6.831757
RightArm 18.321193 -13.956163 75.699664
RightForeArm -54.550799 -0.000000 54.360568
RightHand -8.694399 -0.000000 -20.352198
RightHandThumb1 -24.326973 -0.000000 -32.862282
LeftUpLeg 0.145745 32.819964 28.205587
LeftLeg 134.958513 -0.000000 -0.000000
LeftFoot 46.602245 12.206700 22.361444
LeftToeBase 24.255349 -0.000000 -0.000000
RightUpLeg -123.967609 -8.338112 52.095406
RightLeg 136.250124 -0.000000 -0.000000
RightFoot 34.396728 -27.627267 16.783256
RightToeBase 36.543095 -0.000000 -0.000000
802
root 19.990186 6.700592 -17.318589 -164.233237 -22.445286 -217.742175
Spine 46.827321 -8.162512 -37.393159
Head 25.378515 12.838507 -2.187210
LeftShoulder 10.545972 -29.539765 0.216628
LeftArm 29.641529 39.130570 -41.630179
LeftForeArm 15.562657 -0.000000 76.732437
LeftHand -13.234744 -0.000000 7.892836
LeftHandThumb1 -26.253704 0.000000 33.147579
RightShoulder -0.659179 -17.555701 6.778647
RightArm 18.208187 -14.089753 75.746559
RightForeArm -54.628527 0.000000 54.184669
RightHand -8.663319 -0.000000 -20.327692
RightHandThumb1 -24.326973 -0.000000 -32.862282
LeftUpLeg 0.277028 32.447293 28.417086
LeftLeg 135.152684 -0.000000 -0.000000
LeftFoot 46.350416 11.855518 22.576695
LeftToeBase 24.350612 -0.000000 -0.000000
RightUpLeg -123.926316 -8.619345 52.140548
RightLeg 136.115287 -0.000000 -0.000000
RightFoot 34.953258 -27.736021 16.619324
RightToeBase 36.219696 -0.000000 -0.000000
803
root 20.016038 6.680838 -17.285184 -164.493448 -22.688943 -217.754187
Spine 46.757560 -7.852883 -37.426631
Head 25.499201 12.538738 -2.216962
LeftShoulder 10.430523 -29.512846 0.176005
LeftArm 29.785413 39.347645 -41.430441
LeftForeArm 15.346277 -0.000000 76.106325
LeftHand -12.745999 -0.000000 7.463268
LeftHandThumb1 -26.253704 0.000000 33.147579
RightShoulder -0.731699 -17.804473 6.753270
RightArm 18.451203 -14.270565 75.674123
RightForeArm -54.401713 -0.000000 54.187362
RightHand -9.091706 0.000000 -19.948397
RightHandThumb1 -24.326973 -0.000000 -32.862282
LeftUpLeg 0.235030 32.138559 28.533526
LeftLeg 135.344546 -0.000000 -0.000000
LeftFoot 46.332791 11.801259 22.561767
LeftToeBase 24.330866 -0.000000 -0.000000
RightUpLeg -123.889382 -8.895860 52.182828
RightLeg 136.080173 -0.000000 -0.000000
RightFoot 34.880454 -27.642137 16.581870
RightToeBase 36.150543 -0.000000 -0.000000
